<?xml version="1.0" encoding="utf-8"?>
<!-- Generator: Adobe Illustrator 22.0.0, SVG Export Plug-In . SVG Version: 6.00 Build 0)  -->
<svg version="1.1" id="Layer_1" xmlns="http://www.w3.org/2000/svg" xmlns:xlink="http://www.w3.org/1999/xlink" x="0px" y="0px"
	 viewBox="0 0 60 15" style="enable-background:new 0 0 60 15;" xml:space="preserve">
<style type="text/css">
	.st0{stroke:#000000;stroke-miterlimit:10;}
	.st1{stroke:#000000;stroke-width:0.5;stroke-miterlimit:10;}
</style>
<g>
	<g>
		<path class="st0" d="M58.3,7.3c0,1.3,0,2.5,0,3.8c0,1.2-0.1,1.3-1.3,1.3c-0.9,0-1.7,0-2.6,0c-1.2,0-2.4-1-2.5-2.2
			c-0.1-0.9-0.1-1.9,0-2.8c0.1-1.3,1.4-2.2,2.6-2.3c0.7,0,1.5,0,2.2,0c0.8,0,0.9-0.1,0.9-0.9c0-0.4,0-0.8,0-1.2
			c0-0.2,0.2-0.4,0.3-0.6c0.1,0.2,0.3,0.4,0.3,0.6c0,1.2,0,2.4,0,3.7C58.3,6.9,58.3,7.1,58.3,7.3L58.3,7.3z M57.6,9
			C57.6,9,57.6,9,57.6,9c0-0.8,0-1.5,0-2.3c0-0.5-0.3-0.8-0.8-0.8c-0.6,0-1.3-0.1-2,0c-1.3,0.1-2.2,1-2.3,2.3c0,0.4,0,0.7,0,1.1
			c0,1.8,0.9,2.6,2.7,2.6c0.5,0,1.1,0,1.6-0.1c0.6,0,0.8-0.3,0.8-0.8C57.6,10.3,57.6,9.6,57.6,9z"/>
		<path class="st0" d="M27.3,2.6c0.1,0.3,0.2,0.6,0.2,0.9c0,2.1,0,4.3,0,6.4c0,0.6,0,1.2,0,1.8c0,0.5-0.3,0.7-0.7,0.7
			c-1.1,0-2.2,0.1-3.4,0c-0.8,0-1.3-0.6-1.7-1.2c-0.7-1-0.7-2.1-0.6-3.2c0.2-1.4,1.3-3.1,3.1-2.9c0.6,0.1,1.3,0,1.9,0
			C26.7,5.2,27,5,27,4.4c0-0.6,0-1.1,0-1.7C27.1,2.7,27.2,2.6,27.3,2.6z M26.9,9C26.9,9,26.9,9,26.9,9c0-0.8,0-1.6,0-2.4
			c0-0.4-0.2-0.8-0.7-0.8c-0.9,0-1.9,0-2.8,0c-0.2,0-0.4,0.1-0.5,0.2c-1,1.1-1.4,2.4-1.1,3.8c0.3,1.2,1.3,1.9,2.6,2
			c0.6,0,1.1,0,1.7-0.1c0.5,0,0.8-0.3,0.8-0.8C26.9,10.3,26.9,9.7,26.9,9z"/>
		<path class="st0" d="M40.4,5.4c0.2-0.1,0.4-0.2,0.7-0.2c0.9,0,1.8,0,2.6,0c0.8,0,1.3,0.5,1.7,1.1c0.7,1.1,0.4,2.3,0.5,3.4
			c0,0.6,0,1.3,0,2c0,0.4-0.2,0.6-0.6,0.6c-1.2,0-2.3,0-3.4,0.1c-0.8,0.1-1.4-0.2-2-0.8c-0.6-0.6-0.2-2.2,0.4-2.7
			c1-0.8,2.1-0.6,3.2-0.7c0.4,0,0.9,0,1.3-0.2c0.6-0.2,0.6-0.6,0.3-1.1c-0.2-0.2-0.3-0.4-0.4-0.6C44.6,6,44.4,5.9,44,5.8
			c-0.9,0-1.8,0-2.7-0.1c-0.3,0-0.5-0.1-0.8-0.1C40.4,5.6,40.4,5.5,40.4,5.4z M42.7,11.9c1-0.1,1.9,0.1,2.4-0.9
			c0.5-1,0.1-2.1-1.1-2.2c-0.7,0-1.4,0-2.1,0c-0.6,0-1.1,0.3-1.4,0.7c-0.6,0.7-0.2,2.1,0.8,2.2C41.9,11.9,42.4,11.9,42.7,11.9z"/>
		<path class="st0" d="M37.4,12.3c-0.3,0-0.5,0.1-0.8,0.1c-0.9,0-1.7-0.1-2.6,0c-1.5,0.2-2.6-0.5-3.5-1.5c-0.3-0.3-0.5-0.8-0.6-1.2
			c-0.4-1.6-0.6-3.3,0.2-4.9c0.2-0.4,0.4-0.8,0.7-1.1c1-1,2.1-1.4,3.5-1.3c0.8,0.1,1.5,0,2.3,0c0.2,0,0.4,0.1,0.7,0.2
			c0,0.1,0,0.2,0,0.2c-0.2,0-0.5,0.1-0.7,0.1c-1,0-2,0-3,0c-1.2,0-1.9,0.7-2.5,1.5c-1.1,1.4-0.8,3.1-0.6,4.6
			c0.2,1.4,1.7,2.7,3.1,2.8c1,0.1,2,0,3,0c0.3,0,0.6,0,0.9,0C37.4,12.1,37.4,12.2,37.4,12.3z"/>
		<path class="st0" d="M18.7,2.7c0.2,0.3,0.4,0.6,0.4,0.8c0,2.7,0,5.4,0,8c0,0.2-0.2,0.4-0.4,0.5c-0.1-0.2-0.4-0.4-0.4-0.5
			c0-2.8,0-5.6,0-8.4c0-0.1,0.1-0.3,0.1-0.4C18.6,2.8,18.7,2.7,18.7,2.7z"/>
		<path class="st1" d="M2.1,2.6c0.1,0.3,0.2,0.6,0.2,0.9c0,0.5,0,1,0.1,1.5c0,0.3,0.2,0.6,0.3,0.9c0.1,0.2,0.2,0.4,0.2,0.6
			C3,7.2,3.1,7.9,3.1,8.6c0,1,0.5,1.7,1.2,2.4c0.3,0.3,0.4,1,0.1,1.3c-0.2,0.2-0.5,0.3-0.8,0.3c-0.2,0-0.4-0.4-0.4-0.6
			c-0.3-1.9-0.4-3.8-0.9-5.6c-0.2-1-0.6-2-0.6-3c0-0.3,0.1-0.5,0.2-0.8C1.9,2.6,2,2.6,2.1,2.6z"/>
		<path class="st0" d="M50.3,5.5c-0.1,0.1-0.2,0.2-0.2,0.2c-1,0.3-1.2,0.5-1.2,1.7c0,1.3,0,2.7,0,4c0,0.2,0,0.4,0,0.5
			c0,0.1-0.2,0.2-0.3,0.3c-0.1-0.1-0.3-0.2-0.3-0.3c-0.1-0.2,0-0.4,0-0.6c0-1.6,0-3.2-0.1-4.9C48.2,5.4,49.1,5,50.3,5.5z"/>
		<path class="st1" d="M12.1,8.7c0.5,1.1,0.1,3.1-0.8,3.9c-0.7-0.3-0.9-0.8-1.1-1.5c-0.1-0.4-0.3-0.8-0.4-1.2
			c-0.3-0.6-0.4-1.2,0-1.8c0.4,1.1,0.9,2.1,1.4,3.3C12.1,10.6,11.5,9.5,12.1,8.7z"/>
		<path class="st0" d="M15.6,12.2c0-2.2,0-4.4,0-6.6c0.1,0,0.1-0.1,0.2-0.1c0.1,0.2,0.3,0.4,0.3,0.6c0,1.9,0,3.8,0,5.7
			c0,0.2-0.2,0.4-0.3,0.6C15.7,12.2,15.7,12.2,15.6,12.2z"/>
		<path class="st1" d="M8.1,3.9C7.7,4.1,7.3,4.2,6.9,4.4C6.6,3.9,6.7,3,7.1,2.7c0.2-0.1,0.4-0.3,0.6-0.2C7.9,2.5,8,2.8,8,3
			C8.1,3.3,8.1,3.6,8.1,3.9L8.1,3.9z"/>
		<path class="st1" d="M12.1,8.7c0-1,0.4-2.6,0.5-3.6c0.6,0.5,0.2,4-0.3,4.8C12.2,10,12.2,8.7,12.1,8.7z"/>
		<path class="st1" d="M9.2,7.9C8.7,7.3,8.7,6.5,9.1,6C9.5,6.6,9.6,7.4,9.2,7.9z"/>
		<path class="st1" d="M6.2,6.7C5.9,6.2,5.9,5.6,6.3,4.9C6.7,5.3,6.7,6.1,6.2,6.7z"/>
		<path class="st1" d="M8.1,3.9C8.7,4.1,9,5,8.5,5.8C8.1,5.2,8.2,4.5,8.1,3.9C8.1,3.9,8.1,3.9,8.1,3.9z"/>
		<path class="st0" d="M13.6,4.4c-0.5-0.6,1.5-1.4,2-2C15.6,3.1,13.6,3.8,13.6,4.4z"/>
		<path class="st1" d="M5,9.1c0.3,0.6,0.1,1.2-0.1,1.8C4.4,10.4,4.5,9.7,5,9.1z"/>
		<path class="st1" d="M5.5,8.7C5.2,8.3,5.2,7.7,5.6,7.1C6,7.6,5.9,8.2,5.5,8.7z"/>
	</g>
</g>
</svg>
